<?xml version="1.0" encoding="utf-8"?>
<!-- Generator: Adobe Illustrator 25.2.1, SVG Export Plug-In . SVG Version: 6.00 Build 0)  -->
<svg version="1.1" id="Layer_1" xmlns="http://www.w3.org/2000/svg" xmlns:xlink="http://www.w3.org/1999/xlink" x="0px" y="0px"
	 viewBox="0 0 450 450" style="enable-background:new 0 0 450 450;" xml:space="preserve">
<style type="text/css">
	.st0{fill:#FFFFFF;stroke:#000000;}
	.st1{fill:none;stroke:#000000;}
	.st2{fill:none;}
	.st3{font-family:'MyriadPro-Regular';}
	.st4{font-size:24px;}
	.st5{font-size:8px;}
</style>
<g>
	<ellipse id="svg_1_5_" class="st0" cx="241.2" cy="92.4" rx="50" ry="50"/>
	<ellipse id="svg_1_2_" class="st0" cx="372.7" cy="344" rx="50" ry="50"/>
	<ellipse id="svg_1_4_" class="st0" cx="95.6" cy="349.9" rx="50" ry="50"/>
	<path class="st1" d="M50,282.6"/>
	<path class="st1" d="M302,0"/>
	<path class="st0" d="M201.1,122.3C95.6,299.9,95.6,299.9,95.6,299.9"/>
	<rect x="222.6" y="81.7" class="st2" width="59" height="30.6"/>
	<text transform="matrix(1 0 0 1 222.5807 98.7463)" class="st3 st4">SET</text>
	<rect x="356.9" y="334.6" class="st2" width="59" height="30.6"/>
	<text transform="matrix(1 0 0 1 356.9429 351.656)" class="st3 st4">SPD</text>
	<rect x="77.4" y="340.3" class="st2" width="59" height="30.6"/>
	<text transform="matrix(1 0 0 1 77.4468 357.3253)" class="st3 st4">DST</text>
	<polyline class="st0" points="156.3,345 145.6,349.9 322.7,349.9 	"/>
	<line class="st0" x1="155.4" y1="354.8" x2="145.6" y2="349.9"/>
	<path class="st0" d="M359.2,287.1l8.8,7.1c0,0,0,0-85-174.5"/>
	<line class="st0" x1="368" y1="284.5" x2="368" y2="294.2"/>
	<path class="st0" d="M193.7,125.6"/>
</g>
<path class="st0" d="M199.1,134.8c1.6-11.9,2-12,2-12"/>
<path class="st0" d="M191.2,129.3c9.9-6.6,9.9-6.6,9.9-6.6"/>
<line class="st0" x1="327.2" y1="323.1" x2="137.8" y2="323.1"/>
<polyline class="st0" points="256.1,153.2 257.1,139.8 334.6,311.6 "/>
<line class="st0" x1="267.4" y1="147.4" x2="257.1" y2="139.8"/>
<path class="st0" d="M312.7,315"/>
<line class="st0" x1="326.8" y1="323.1" x2="312" y2="329.8"/>
<line class="st0" x1="312.7" y1="315.5" x2="327.5" y2="322.5"/>
<text transform="matrix(1 0 0 1 213.3969 344.9631)" class="st3 st5">short_press</text>
<text transform="matrix(1 0 0 1 213.7087 318.9869)" class="st3 st5">short_press</text>
<text transform="matrix(1 0 0 1 325.5318 201.8093)" class="st3 st5">long_press</text>
<text transform="matrix(1 0 0 1 247.39 212.5378)" class="st3 st5">long_press</text>
<text transform="matrix(1 0 0 1 104.2343 212.5378)" class="st3 st5">long_press</text>
</svg>
