<?xml version="1.0" encoding="utf-8"?>
<!-- Generator: Adobe Illustrator 25.2.1, SVG Export Plug-In . SVG Version: 6.00 Build 0)  -->
<svg version="1.1" id="Layer_1" xmlns="http://www.w3.org/2000/svg" xmlns:xlink="http://www.w3.org/1999/xlink" x="0px" y="0px"
	 viewBox="0 0 2665 1260" style="enable-background:new 0 0 2665 1260;" xml:space="preserve">
<style type="text/css">
	.st0{fill:#FFFFFF;stroke:#000000;}
	.st1{font-family:'ArialMT';}
	.st2{font-size:20px;}
	.st3{font-size:16px;}
	.st4{fill:none;stroke:#000000;}
	.st5{fill:#FFFFFF;stroke:#000000;stroke-miterlimit:10;}
</style>
<g>
	<rect id="svg_4" x="201.5" y="66.9" class="st0" width="2123" height="1142.2"/>
	<rect id="svg_43" x="1121.9" y="119" class="st0" width="1100" height="584.6"/>
	<text id="svg_5" transform="matrix(1 0 0 1 461.7327 64.5781)" class="st1 st2">top</text>
	<rect id="svg_3" x="1222.9" y="168.9" class="st0" width="150" height="150"/>
	<text id="svg_8" transform="matrix(1 0 0 1 1222.8124 161.0436)" class="st1 st3">clock_enable_0</text>
	<text id="svg_9" transform="matrix(1 0 0 1 329.136 386.635)" class="st1 st3">clock_enable_1</text>
	<rect id="svg_11" x="1472.9" y="169" class="st0" width="150" height="150"/>
	<text id="svg_14" transform="matrix(1 0 0 1 1472.8124 161.0436)" class="st1 st3">counter_up_down_0</text>
	<rect id="svg_15" x="2422.9" y="169" class="st0" width="200" height="400"/>
	<text id="svg_23" transform="matrix(1 0 0 1 2422.812 161.0436)" class="st1 st3">PMOD 7seg4</text>
	<rect id="svg_28" x="31.5" y="650.9" class="st0" width="100" height="100"/>
	<text id="svg_29" transform="matrix(1 0 0 1 31.4803 648.3145)" class="st1 st3">PMOD Hall</text>
	<ellipse id="svg_37" class="st0" cx="81.5" cy="294.5" rx="10" ry="10"/>
	<text id="svg_38" transform="matrix(1 0 0 1 71.4805 282.9086)" class="st1 st3">CLK_100_MHz</text>
	<ellipse id="svg_39" class="st0" cx="81.5" cy="242.5" rx="10" ry="10"/>
	<text id="svg_40" transform="matrix(1 0 0 1 71.4803 231.3497)" class="st1 st3">BTN0 - Reset</text>
	<ellipse id="svg_41" class="st0" cx="81.5" cy="1021.9" rx="10" ry="10"/>
	<text id="svg_42" transform="matrix(1 0 0 1 71.5001 1009.1027)" class="st1 st3">BTN1 - Display</text>
	<rect id="svg_18" x="1722.9" y="169" class="st0" width="150" height="484.4"/>
	<rect id="svg_19" x="1972.9" y="169" class="st0" width="150" height="150"/>
	<text id="svg_20" transform="matrix(1 0 0 1 1972.8124 161.0436)" class="st1 st3">hex_7_seg</text>
	<text id="svg_21" transform="matrix(1 0 0 1 1733.9215 186.1074)" class="st1 st3">process p_mux</text>
	<line id="svg_44" class="st4" x1="2122.9" y1="244" x2="2422.9" y2="244"/>
	<line id="svg_45" class="st4" x1="1972.9" y1="244" x2="1872.9" y2="244"/>
	<text id="svg_46" transform="matrix(1 0 0 1 1122.8124 111.0436)" class="st1 st2">driver_7seg_4digits</text>
	<text id="svg_47" transform="matrix(1 0 0 1 2076.8447 249.0436)" class="st1 st3">seg_o</text>
	<text id="svg_48" transform="matrix(1 0 0 1 1975.3932 249.0436)" class="st1 st3">hex_i</text>
	<line id="svg_50" class="st4" x1="2177.9" y1="233.2" x2="2172.1" y2="252.3"/>
	<text id="svg_51" transform="matrix(1 0 0 1 2169.479 269.0436)" class="st1 st3">7</text>
	<line id="svg_52" class="st4" x1="1924.9" y1="233" x2="1918.9" y2="253"/>
	<text id="svg_53" transform="matrix(1 0 0 1 1915.8124 269.0436)" class="st1 st3">4</text>
	<line id="svg_54" class="st4" x1="1872.9" y1="369" x2="2422.9" y2="369"/>
	<line id="svg_55" class="st4" x1="1872.9" y1="419" x2="2422.9" y2="419"/>
	<line id="svg_56" class="st4" x1="1923.9" y1="357" x2="1918.9" y2="377"/>
	<line id="svg_57" class="st4" x1="1923.9" y1="409" x2="1918.9" y2="429"/>
	<text id="svg_59" transform="matrix(1 0 0 1 1916.8124 390.996)" class="st1 st3">1</text>
	<text id="svg_60" transform="matrix(1 0 0 1 1915.9076 442.996)" class="st1 st3">4</text>
	<text id="svg_61" transform="matrix(1 0 0 1 1833.8763 374.0436)" class="st1 st3">dp_o</text>
	<text id="svg_62" transform="matrix(1 0 0 1 1830.4679 423.2877)" class="st1 st3">dig_o</text>
	<text id="svg_63" transform="matrix(1 0 0 1 1477.8124 189.0436)" class="st1 st3">g_CNT_WIDTH = 2</text>
	<text id="svg_64" transform="matrix(1 0 0 1 1235.2592 186.916)" class="st1 st3">g_MAX = 400000</text>
	<line id="svg_65" class="st4" x1="1722.9" y1="369" x2="1646.8" y2="369"/>
	<text id="svg_66" transform="matrix(1 0 0 1 1726.7487 374.0436)" class="st1 st3">dp_i</text>
	<line id="svg_67" class="st4" x1="1682.4" y1="359" x2="1677.1" y2="377.9"/>
	<line id="svg_67_4_" class="st4" x1="853" y1="486.1" x2="847.7" y2="505"/>
	<text id="svg_68" transform="matrix(1 0 0 1 1673.8124 391.9484)" class="st1 st3">4</text>
	<text id="svg_68_6_" transform="matrix(1 0 0 1 853.1368 494.3574)" class="st1 st3">10</text>
	<line id="svg_69" class="st4" x1="1722.9" y1="244" x2="1623.4" y2="244"/>
	<line id="svg_71" class="st4" x1="1372.9" y1="219" x2="1472.9" y2="219"/>
	<line id="svg_72" class="st4" x1="1677.7" y1="234.2" x2="1671.9" y2="253.3"/>
	<text id="svg_73" transform="matrix(1 0 0 1 1669.86 267.0436)" class="st1 st3">2</text>
	<text id="svg_74" transform="matrix(1 0 0 1 1581.0382 248.4753)" class="st1 st3">cnt_o</text>
	<text id="svg_75" transform="matrix(1 0 0 1 1658.8124 226.0436)" class="st1 st3">s_cnt</text>
	<text id="svg_76" transform="matrix(1 0 0 1 1907.8124 226.0436)" class="st1 st3">s_hex</text>
	<text id="svg_77" transform="matrix(1 0 0 1 1475.5865 222.0436)" class="st1 st3">en_i</text>
	<text id="svg_78" transform="matrix(1 0 0 1 1475.5865 249.0436)" class="st1 st3">cnt_up_i</text>
	<text id="svg_79" transform="matrix(1 0 0 1 1476.3932 276.0436)" class="st1 st3">reset</text>
	<text id="svg_80" transform="matrix(1 0 0 1 1488.2963 299.2526)" class="st1 st3">clk</text>
	<line id="svg_87" class="st4" x1="1485.8" y1="294.5" x2="1472.9" y2="301.6"/>
	<line id="svg_88" class="st4" x1="1485.8" y1="294.5" x2="1472.9" y2="287.3"/>
	<text id="svg_89" transform="matrix(1 0 0 1 1403.7665 212.2822)" class="st1 st3">s_en</text>
	<line id="svg_91" class="st4" x1="1472.9" y1="242.7" x2="1413.2" y2="242.7"/>
	<text id="svg_94" transform="matrix(1 0 0 1 1335.4994 223.5938)" class="st1 st3">ce_o</text>
	<text id="svg_95" transform="matrix(1 0 0 1 1226.4833 246.7542)" class="st1 st3">reset</text>
	<text id="svg_96" transform="matrix(1 0 0 1 1237.7068 299.4697)" class="st1 st3">clk</text>
	<line id="svg_99" class="st4" x1="1236.1" y1="294.5" x2="1222.9" y2="287.4"/>
	<line id="svg_100" class="st4" x1="1236.1" y1="294.5" x2="1222.9" y2="301.8"/>
	<text id="svg_101" transform="matrix(1 0 0 1 2155.5679 225.6395)" class="st1 st3">seg_o</text>
	<line id="svg_65_1_" class="st4" x1="1222.9" y1="294.5" x2="91.5" y2="294.5"/>
	<line id="svg_65_2_" class="st4" x1="329.1" y1="1021.9" x2="91.5" y2="1021.9"/>
	<line id="svg_65_3_" class="st4" x1="1222.9" y1="242.5" x2="91.5" y2="242.5"/>
	<line id="svg_65_4_" class="st4" x1="1472.9" y1="272.1" x2="1423.8" y2="272.1"/>
	<line id="svg_65_5_" class="st4" x1="1472.9" y1="294.5" x2="1444.5" y2="294.5"/>
	<line id="svg_65_6_" class="st4" x1="1423.8" y1="336.2" x2="1198.9" y2="336.2"/>
	<line id="svg_65_7_" class="st4" x1="1444.5" y1="352.7" x2="1173.9" y2="352.7"/>
	<line id="svg_93_2_" class="st4" x1="1423.8" y1="272.1" x2="1423.8" y2="336.2"/>
	<line id="svg_93_3_" class="st4" x1="1444.5" y1="294.5" x2="1444.5" y2="352.7"/>
	<line id="svg_93_4_" class="st4" x1="1198.9" y1="242.5" x2="1198.9" y2="336.2"/>
	<line id="svg_93_5_" class="st4" x1="1173.9" y1="294.5" x2="1173.9" y2="352.7"/>
	<rect id="svg_3_1_" x="329.2" y="391.4" class="st0" width="150" height="150"/>
	<rect id="svg_3_2_" x="329.2" y="902.5" class="st0" width="150" height="150"/>
	<rect id="svg_3_3_" x="881.4" y="897.6" class="st0" width="150" height="150"/>
	<text id="svg_64_1_" transform="matrix(1 0 0 1 341.1995 412.1357)" class="st1 st3">g_MAX = 100000</text>
	<line id="svg_71_2_" class="st4" x1="479.2" y1="437.3" x2="606.5" y2="437.3"/>
	<rect id="svg_12_1_" x="606.5" y="391.5" class="st0" width="157.4" height="178.2"/>
	<text id="svg_16_1_" transform="matrix(1 0 0 1 606.411 387.339)" class="st1 st3">counter_speed</text>
	<text id="svg_77_1_" transform="matrix(1 0 0 1 609.1849 441.6533)" class="st1 st3">en_i</text>
	<text id="svg_79_1_" transform="matrix(1 0 0 1 609.1847 524.8293)" class="st1 st3">reset</text>
	<text id="svg_80_1_" transform="matrix(1 0 0 1 621.8948 547.8622)" class="st1 st3">clk</text>
	<line id="svg_87_1_" class="st4" x1="619.4" y1="543.1" x2="606.5" y2="550.2"/>
	<line id="svg_88_1_" class="st4" x1="619.4" y1="543.1" x2="606.5" y2="535.9"/>
	<text id="svg_63_1_" transform="matrix(1 0 0 1 612.8608 412.2106)" class="st1 st3">g_CNT_WIDTH = 10</text>
	<rect id="svg_12_2_" x="606.5" y="653.4" class="st0" width="157.4" height="150"/>
	<rect id="svg_12_3_" x="606.5" y="898.6" class="st0" width="157.4" height="174.6"/>
	<text id="svg_16_2_" transform="matrix(1 0 0 1 606.411 649.2601)" class="st1 st3">counter_distance</text>
	<text id="svg_16_3_" transform="matrix(1 0 0 1 329.1359 896.9955)" class="st1 st3">btn_filter:in_filter</text>
	<text id="svg_16_4_" transform="matrix(1 0 0 1 606.4108 893.4353)" class="st1 st3">signal_detect</text>
	<text id="svg_16_5_" transform="matrix(1 0 0 1 881.4227 895.3876)" class="st1 st3">control</text>
	<text id="svg_77_2_" transform="matrix(1 0 0 1 609.1849 703.5746)" class="st1 st3">hall_i</text>
	<text id="svg_77_10_" transform="matrix(1 0 0 1 416.1938 694.2642)" class="st1 st3">s_hall</text>
	<text id="svg_77_9_" transform="matrix(1 0 0 1 608.9373 992.3325)" class="st1 st3">clear_i</text>
	<text id="svg_77_3_" transform="matrix(1 0 0 1 332.8069 1025.5471)" class="st1 st3">input</text>
	<text id="svg_77_6_" transform="matrix(1 0 0 1 608.9375 942.1133)" class="st1 st3">input</text>
	<text id="svg_78_3_" transform="matrix(1 0 0 1 609.4406 1034.4497)" class="st1 st3">time_short_i</text>
	<text id="svg_78_7_" transform="matrix(1 0 0 1 883.7354 1010.3631)" class="st1 st3">clear_press_0</text>
	<text id="svg_78_10_" transform="matrix(1 0 0 1 795.4393 1001.8938)" class="st1 st3">s_sd_clear</text>
	<text id="svg_78_6_" transform="matrix(1 0 0 1 882.5999 961.9402)" class="st1 st3">long_press_i</text>
	<text id="svg_78_9_" transform="matrix(1 0 0 1 663.8539 961.94)" class="st1 st3">long_signal_o</text>
	<text id="svg_78_5_" transform="matrix(1 0 0 1 883.3253 935.3638)" class="st1 st3">short_press_i</text>
	<text id="svg_78_8_" transform="matrix(1 0 0 1 659.1837 935.3638)" class="st1 st3">short_signal_o</text>
	<text id="svg_78_11_" transform="matrix(1 0 0 1 796.4768 926.3401)" class="st1 st3">s_short</text>
	<text id="svg_78_12_" transform="matrix(1 0 0 1 795.6346 953.8441)" class="st1 st3">s_long</text>
	<text id="svg_78_4_" transform="matrix(1 0 0 1 609.9918 1055.8903)" class="st1 st3">time_long_i</text>
	<text id="svg_79_2_" transform="matrix(1 0 0 1 609.9916 757.5746)" class="st1 st3">reset</text>
	<text id="svg_79_5_" transform="matrix(1 0 0 1 608.9376 1012.8135)" class="st1 st3">reset</text>
	<text id="svg_79_4_" transform="matrix(1 0 0 1 331.6562 949.3318)" class="st1 st3">reset</text>
	<text id="svg_80_4_" transform="matrix(1 0 0 1 620.8339 969.6416)" class="st1 st3">clk</text>
	<text id="svg_80_3_" transform="matrix(1 0 0 1 344.0306 980.5054)" class="st1 st3">clk</text>
	<line id="svg_87_4_" class="st4" x1="619.3" y1="965.5" x2="606.4" y2="972.6"/>
	<line id="svg_87_3_" class="st4" x1="342.1" y1="977" x2="329.2" y2="984.1"/>
	<line id="svg_88_4_" class="st4" x1="619.3" y1="965.5" x2="606.4" y2="958.3"/>
	<line id="svg_88_3_" class="st4" x1="342.1" y1="977.2" x2="329.2" y2="970"/>
	<text id="svg_63_2_" transform="matrix(1 0 0 1 612.8608 674.1318)" class="st1 st3">g_CNT_WIDTH = 19</text>
	<text id="svg_63_3_" transform="matrix(1 0 0 1 335.65 916.9322)" class="st1 st3">g_CNT_WIDTH = 3</text>
	<text id="svg_63_4_" transform="matrix(1 0 0 1 609.1847 912.9638)" class="st1 st3">g_CNT_WIDTH = 32</text>
	<text id="svg_95_1_" transform="matrix(1 0 0 1 332.8069 468.0337)" class="st1 st3">reset</text>
	<text id="svg_95_2_" transform="matrix(1 0 0 1 498.5124 432.0801)" class="st1 st3">s_ce</text>
	<text id="svg_95_3_" transform="matrix(1 0 0 1 442.6147 441.6533)" class="st1 st3">ce_1</text>
	<text id="svg_96_1_" transform="matrix(1 0 0 1 344.0304 520.7493)" class="st1 st3">clk</text>
	<line id="svg_99_1_" class="st4" x1="342.4" y1="515.7" x2="329.2" y2="508.6"/>
	<line id="svg_100_1_" class="st4" x1="342.4" y1="515.7" x2="329.2" y2="523"/>
	<line id="svg_93_7_" class="st4" x1="585.9" y1="514.1" x2="585.9" y2="965.5"/>
	<line id="svg_93_1_" class="st4" x1="1064.7" y1="848.3" x2="1064.7" y2="985.9"/>
	<line id="svg_93_8_" class="st4" x1="965.4" y1="785.5" x2="965.4" y2="848.3"/>
	<line id="svg_65_8_" class="st4" x1="329.2" y1="463.6" x2="307.7" y2="463.6"/>
	<line id="svg_65_9_" class="st4" x1="606.5" y1="543.1" x2="585.9" y2="543.1"/>
	<line id="svg_65_10_" class="st4" x1="329.2" y1="515.7" x2="286.5" y2="515.7"/>
	<line id="svg_65_17_" class="st4" x1="606.5" y1="965.5" x2="585.9" y2="965.5"/>
	<line id="svg_65_19_" class="st4" x1="881.4" y1="930.7" x2="763.9" y2="930.7"/>
	<line id="svg_65_21_" class="st4" x1="1064.9" y1="985.9" x2="1031.4" y2="985.9"/>
	<line id="svg_65_24_" class="st4" x1="1064.7" y1="848.3" x2="965.4" y2="848.3"/>
	<line id="svg_65_20_" class="st4" x1="881.4" y1="958.2" x2="763.9" y2="958.2"/>
	<line id="svg_65_11_" class="st4" x1="881.4" y1="1006.3" x2="795.4" y2="1006.3"/>
	<line id="svg_65_14_" class="st4" x1="606.4" y1="938.1" x2="479.2" y2="938.1"/>
	<line id="svg_65_13_" class="st4" x1="606.5" y1="520.3" x2="563.4" y2="520.3"/>
	<line id="svg_65_15_" class="st4" x1="606.5" y1="753.1" x2="563.4" y2="753.1"/>
	<line id="svg_65_18_" class="st4" x1="606.5" y1="1009.1" x2="563.4" y2="1009.1"/>
	<line id="svg_93_9_" class="st4" x1="563.4" y1="491.3" x2="563.4" y2="1009.1"/>
	<line id="svg_93_10_" class="st4" x1="307.7" y1="242.5" x2="307.7" y2="944.5"/>
	<line id="svg_93_11_" class="st4" x1="563.4" y1="242.5" x2="563.4" y2="491.7"/>
	<line id="svg_93_12_" class="st4" x1="286.5" y1="294.5" x2="286.5" y2="977.5"/>
	<line id="svg_93_13_" class="st4" x1="585.9" y1="294.5" x2="585.9" y2="514"/>
	<line id="svg_65_16_" class="st4" x1="606.5" y1="699.6" x2="131.5" y2="699.6"/>
	<text id="svg_77_5_" transform="matrix(1 0 0 1 724.6223 761.8149)" class="st1 st3">dis_o</text>
	<text id="svg_77_4_" transform="matrix(1 0 0 1 432.2787 943.2474)" class="st1 st3">output</text>
	<text id="svg_77_7_" transform="matrix(1 0 0 1 719.4017 499.6373)" class="st1 st3">spd_o</text>
	<text id="svg_68_1_" transform="matrix(1 0 0 1 1660.5785 353.291)" class="st1 st3">(1101)</text>
	<text id="svg_68_2_" transform="matrix(1 0 0 1 1938.073 365.532)" class="st1 st3">(”XXX.X”)</text>
	<text id="svg_77_19_" transform="matrix(1 0 0 1 787.9844 491.8533)" class="st1 st3">s_spd</text>
	<text id="svg_77_23_" transform="matrix(1 0 0 1 791.1104 753.0997)" class="st1 st3">s_dis</text>
	<line id="svg_67_9_" class="st4" x1="846.6" y1="747.5" x2="841.3" y2="766.4"/>
	<text id="svg_68_11_" transform="matrix(1 0 0 1 846.8666 755.9481)" class="st1 st3">19</text>
	<rect id="svg_11_1_" x="882.6" y="393" class="st0" width="150" height="410.4"/>
	<line id="svg_65_22_" class="st4" x1="882.6" y1="757.5" x2="763.9" y2="757.5"/>
	<line id="svg_65_23_" class="st4" x1="882.6" y1="495.6" x2="763.9" y2="495.6"/>
	<line id="svg_65_27_" class="st4" x1="1722.9" y1="549.9" x2="1032.6" y2="549.9"/>
	<line id="svg_65_28_" class="st4" x1="1722.9" y1="566.8" x2="1032.6" y2="566.8"/>
	<line id="svg_65_29_" class="st4" x1="1722.9" y1="585.8" x2="1032.6" y2="585.8"/>
	<line id="svg_65_30_" class="st4" x1="1722.9" y1="604.7" x2="1032.6" y2="604.7"/>
	<text id="svg_77_27_" transform="matrix(1 0 0 1 965.4109 553.9944)" class="st1 st3">data_o_0</text>
	<text id="svg_77_28_" transform="matrix(1 0 0 1 965.4111 571.4741)" class="st1 st3">data_o_1</text>
	<text id="svg_77_29_" transform="matrix(1 0 0 1 965.411 590.0884)" class="st1 st3">data_o_2</text>
	<text id="svg_77_30_" transform="matrix(1 0 0 1 965.4111 609.2698)" class="st1 st3">data_o_3</text>
	<text id="svg_77_34_" transform="matrix(1 0 0 1 1723.7162 553.9324)" class="st1 st3">data_i_0</text>
	<text id="svg_77_33_" transform="matrix(1 0 0 1 1723.7167 571.4125)" class="st1 st3">data_i_1</text>
	<text id="svg_77_32_" transform="matrix(1 0 0 1 1723.7164 590.0266)" class="st1 st3">data_i_2</text>
	<text id="svg_77_31_" transform="matrix(1 0 0 1 1723.7164 609.2079)" class="st1 st3">data_i_3</text>
	<text id="svg_77_38_" transform="matrix(1 0 0 1 1544.8507 545.5381)" class="st1 st3">s_data_0</text>
	<text id="svg_77_37_" transform="matrix(1 0 0 1 1544.851 563.0178)" class="st1 st3">s_data_1</text>
	<text id="svg_77_36_" transform="matrix(1 0 0 1 1544.8507 581.6321)" class="st1 st3">s_data_2</text>
	<text id="svg_77_35_" transform="matrix(1 0 0 1 1544.851 600.8137)" class="st1 st3">s_data_3</text>
	<text id="svg_21_1_" transform="matrix(1 0 0 1 898.4349 408.2313)" class="st1 st3">process p_control</text>
	<text id="svg_77_39_" transform="matrix(1 0 0 1 883.7354 761.2491)" class="st1 st3">dis_i</text>
	<line id="svg_65_31_" class="st4" x1="2661.7" y1="1259.8" x2="0" y2="1259.8"/>
	<line id="svg_65_32_" class="st4" x1="2661.7" y1="0" x2="0" y2="0"/>
	<line id="svg_93_15_" class="st4" x1="0" y1="0" x2="0" y2="1259.8"/>
	<line id="svg_93_16_" class="st4" x1="2661.7" y1="0" x2="2661.7" y2="1259.8"/>
	<ellipse id="svg_39_1_" class="st0" cx="1403.2" cy="242.7" rx="10" ry="10"/>
	<text transform="matrix(1 0 0 1 1414.7584 241.1063)" class="st1 st3">3V3</text>
	<line id="svg_93_6_" class="st4" x1="540.2" y1="491.7" x2="540.2" y2="699.6"/>
	<line id="svg_65_12_" class="st4" x1="606.5" y1="491.7" x2="540.2" y2="491.7"/>
	<text id="svg_79_3_" transform="matrix(1 0 0 1 609.1849 495.2014)" class="st1 st3">hall_i</text>
	<text id="svg_61_1_" transform="matrix(1 0 0 1 2252.9097 366.7391)" class="st1 st3">JB7</text>
	<text id="svg_61_2_" transform="matrix(1 0 0 1 2245.8794 239.1931)" class="st1 st3">JB[6:0]</text>
	<text id="svg_61_3_" transform="matrix(1 0 0 1 2246.4312 414.114)" class="st1 st3">JC[3:0]</text>
	<line id="svg_55_1_" class="st4" x1="1872.9" y1="467.7" x2="2422.9" y2="467.7"/>
	<line id="svg_57_1_" class="st4" x1="1923.9" y1="457.7" x2="1918.9" y2="477.7"/>
	<text id="svg_60_1_" transform="matrix(1 0 0 1 1915.9076 491.72)" class="st1 st3">1</text>
	<text id="svg_61_7_" transform="matrix(1 0 0 1 2252.5635 465.2257)" class="st1 st3">JC4</text>
	<text id="svg_61_4_" transform="matrix(1 0 0 1 2424.8882 248.4751)" class="st1 st3">Segment_[G:A]</text>
	<text id="svg_61_5_" transform="matrix(1 0 0 1 2424.8887 374.0433)" class="st1 st3">DP</text>
	<text id="svg_61_8_" transform="matrix(1 0 0 1 2424.8882 472.9553)" class="st1 st3">Colon</text>
	<text id="svg_61_6_" transform="matrix(1 0 0 1 2425.2769 424.7992)" class="st1 st3">Digit_[3:0]</text>
	<text id="svg_62_1_" transform="matrix(1 0 0 1 1830.9957 472.2241)" class="st1 st3">dig_c</text>
	<text id="svg_77_8_" transform="matrix(1 0 0 1 883.7357 499.6373)" class="st1 st3">spd_i</text>
	<line id="svg_91_3_" class="st4" x1="329.1" y1="944.5" x2="307.7" y2="944.5"/>
	<line id="svg_91_4_" class="st4" x1="329.1" y1="977.5" x2="286.5" y2="977.5"/>
	<path class="st4" d="M2732,0"/>
</g>
<text id="svg_60_2_" transform="matrix(1 0 0 1 2012.6486 575.1411)" class="st1 st3">(‘1’)</text>
<path class="st4" d="M25.4,67.6"/>
<path class="st4" d="M0,33.6"/>
<path class="st5" d="M810,774"/>
</svg>
